# AST/ASF file generated using VICON BodyLanguage
# -----------------------------------------------
:version 1.10
:name VICON
:units
  mass 1.0
  length 0.45
  angle deg
:documentation
   .ast/.asf automatically generated from VICON data using
   VICON BodyBuilder and BodyLanguage model FoxedUp or BRILLIANT.MOD
:root
   order TX TY TZ RX RY RZ
   axis XYZ
   position 0 0 0  
   orientation 0 0 0 
:bonedata
  begin
     id 1 
     name lhipjoint
     direction 0.756833 -0.6125 0.228138 
     length 2.53827 
     axis 0 0 0  XYZ
  end
  begin
     id 2 
     name lfemur
     direction 0.34202 -0.939693 0  
     length 6.51821  
     axis 0 0 20  XYZ
    dof rx ry rz
    limits (-160.0 20.0)
           (-70.0 70.0)
           (-60.0 70.0)
  end
  begin
     id 3 
     name ltibia
     direction 0.34202 -0.939693 0   
     length 6.99902   
     axis 0 0 20   XYZ
    dof rx
    limits (-10.0 170.0)
  end
  begin
     id 4 
     name lfoot
     direction 0.0951515 -0.261427 0.960522   
     length 1.92102   
     axis -90 7.62852e-016 20   XYZ
    dof rx rz
    limits (-45.0 90.0)
           (-70.0 20.0)
  end
  begin
     id 5 
     name ltoes
     direction 1.53539e-011 -4.21781e-011 1   
     length 0.964376   
     axis -90 7.62852e-016 20   XYZ
    dof rx
    limits (-90.0 20.0)
  end
  begin
     id 6 
     name rhipjoint
     direction -0.752153 -0.617542 0.230017   
     length 2.51754  
     axis 0 0 0  XYZ 
  end
  begin
     id 7 
     name rfemur
     direction -0.34202 -0.939693 0   
     length 6.82377   
     axis 0 0 -20   XYZ
    dof rx ry rz
    limits (-160.0 20.0)
           (-70.0 70.0)
           (-70.0 60.0)
  end
  begin
     id 8 
     name rtibia
     direction -0.34202 -0.939693 0   
     length 6.98689   
     axis 0 0 -20   XYZ
    dof rx
    limits (-10.0 170.0)
 end
 begin
     id 9 
     name rfoot
     direction -0.0900426 -0.24739 0.964723   
     length 2.03215  
     axis -90 -7.62852e-016 -20   XYZ
    dof rx rz
    limits (-45.0 90.0)
           (-20.0 70.0)
  end
  begin
     id 10 
     name rtoes
     direction -1.53466e-011 -4.22206e-011 1   
     length 1.0197   
     axis -90 -7.62852e-016 -20   XYZ
    dof rx
    limits (-90.0 20.0)
  end
  begin
     id 11 
     name lowerback
     direction 0.0184183 0.995705 -0.0907278   
     length 2.019   
     axis 0 0 0   XYZ
    dof rx ry rz
    limits (-20.0 45.0)
           (-30.0 30.0)
           (-30.0 30.0)
  end
  begin
     id 12 
     name upperback
     direction 0.00281055 0.998777 0.0493607   
     length 1.99623   
     axis 0 0 0   XYZ
    dof rx ry rz
    limits (-20.0 45.0)
           (-30.0 30.0)
           (-30.0 30.0)
  end
  begin
     id 13 
     name thorax
     direction -0.00665507 0.995706 0.092331   
     length 2.02811   
     axis 0 0 0   XYZ
    dof rx ry rz
    limits (-20.0 45.0)
           (-30.0 30.0)
           (-30.0 30.0)
  end
  begin
     id 14 
     name lowerneck
     direction -0.0960965 0.994358 0.0449225   
     length 1.71265   
     axis 0 0 0   XYZ
    dof rx ry rz
    limits (-20.0 45.0)
           (-30.0 30.0)
           (-30.0 30.0)
  end
  begin
     id 15 
     name upperneck
     direction 0.13642 0.985357 -0.102278   
     length 1.73016   
     axis 0 0 0   XYZ
    dof rx ry rz
    limits (-20.0 45.0)
           (-30.0 30.0)
           (-30.0 30.0)
  end
  begin
     id 16
     name head
     direction 0.0556079 0.997632 -0.040479  
     length 1.74275  
     axis 0 0 0   XYZ
    dof rx ry rz
    limits (-20.0 45.0)
           (-30.0 30.0)
           (-30.0 30.0)
  end
  begin
     id 17 
     name lclavicle
     direction 0.90877 0.417247 -0.00652364  
     length 3.25514  
     axis 0 0 0   XYZ
    dof ry rz
    limits (-20.0 10.0)
           (0.0 20.0)
  end
  begin
     id 18 
     name lhumerus
     direction 1 -4.48949e-011 8.31417e-028   
     length 4.84834   
     axis 180 -30 -90   XYZ
    dof rx ry rz
    limits (-60.0 90.0)
           (-90.0 90.0)
           (-90.0 90.0)
  end
  begin
     id 19
     name lradius
     direction 1 -4.48984e-011 3.45616e-027   
     length 2.99713   
     axis 180 -30 -90   XYZ
    dof rx
    limits (-10.0 170.0)
  end
  begin
     id 20
     name lwrist
     direction 1 -4.4891e-011 4.0479e-027   
     length 1.49857   
     axis -1.61768e-015 90 90   XYZ
    dof ry
    limits (-180.0 0.0)
 end
  begin
     id 21 
     name lhand
     direction 1 -4.49025e-011 8.0958e-027   
     length 0.693987   
     axis -5.16581e-015 90 90   XYZ
    dof rx rz
    limits (-90.0 90.0)
           (-45.0 45.0)
  end
  begin
     id 22 
     name lfingers
     direction 1 -4.4888e-011 1.61916e-026   
     length 0.55951   
     axis -1.03316e-014 90 90   XYZ
    dof rx
    limits (0.0 90.0)
  end
  begin
     id 23
     name lthumb
     direction 0.707107 -6.3493e-011 0.707107   
     length 0.803348   
     axis -90 45 2.85299e-015   XYZ
    dof rx rz
    limits (-45.0 45.0)
           (-45.0 45.0)
  end
  begin
     id 24 
     name rclavicle
     direction -0.906655 0.41906 0.0486307   
     length 3.3311  
     axis 0 0 0   XYZ 
    dof ry rz
    limits (-10.0 20.0)
           (-20.0 0.0)
  end
  begin
     id 25 
     name rhumerus
     direction -1 -4.48959e-011 6.37764e-018  
     length 4.93457   
     axis 180 30 90   XYZ
    dof rx ry rz
    limits (-90.0 60.0)
           (-90.0 90.0)
           (-90.0 90.0)
  end
  begin
     id 26 
     name rradius
     direction -1 -4.48957e-011 2.20847e-027   
     length 3.3443   
     axis 180 30 90   XYZ
    dof rx
    limits (-10.0 170.0)
  end
  begin
     id 27 
     name rwrist
     direction -1 -4.49008e-011 4.0479e-027   
     length 1.67215   
     axis -1.61768e-015 -90 -90   XYZ
    dof ry
    limits (-180.0 0.0)
  end
  begin
     id 28
     name rhand
     direction -1 -4.49013e-011 8.0958e-027   
     length 0.677363   
     axis -5.16581e-015 -90 -90   XYZ
    dof rx rz
    limits (-90.0 90.0)
           (-45.0 45.0)
  end
  begin
     id 29
     name rfingers
     direction -1 -4.48832e-011 1.61916e-026   
     length 0.546107   
     axis -1.03316e-014 -90 -90   XYZ
    dof rx
    limits (0.0 90.0)
  end
  begin
     id 30
     name rthumb
     direction -0.707107 -6.34895e-011 0.707107   
     length 0.784104   
     axis -90 -45 -2.85299e-015   XYZ
    dof rx rz
    limits (-45.0 45.0)
           (-45.0 45.0)
  end
:hierarchy
  begin
    root lhipjoint rhipjoint lowerback
    lhipjoint lfemur
    lfemur ltibia
    ltibia lfoot
    lfoot ltoes
    rhipjoint rfemur
    rfemur rtibia
    rtibia rfoot
    rfoot rtoes
    lowerback upperback
    upperback thorax
    thorax lowerneck lclavicle rclavicle
    lowerneck upperneck
    upperneck head
    lclavicle lhumerus
    lhumerus lradius
    lradius lwrist
    lwrist lhand lthumb
    lhand lfingers
    rclavicle rhumerus
    rhumerus rradius
    rradius rwrist
    rwrist rhand rthumb
    rhand rfingers
  end

#!OML:ASF H:\Terrain\Patient Classification 1\junglegym\FridayTest\junglegym.ASF
:FULLY-SPECIFIED
:DEGREES
158
root -17.8097 17.5536 0.461148 -41.6386 -87.448 -9.34394
lowerback 12.7966 -0.296637 -0.2525
upperback -0.956539 -0.465772 -0.234648
thorax -8.21804 -0.225355 -0.0147063
lowerneck 9.25265 0.699053 -15.9389
upperneck 33.8918 -4.24123 8.9331
head 9.80603 -4.35894 5.65654
rclavicle -4.96962e-016 6.85807e-015
rhumerus 99.064 -22.9392 -54.8861
rradius 25.0331
rwrist -0.511685
rhand 12.8843 22.4164
rfingers 7.12502
rthumb 37.8565 -3.42169
lclavicle -4.96962e-016 6.85807e-015
lhumerus 97.0627 20.99 54.8167
lradius 26.3573
lwrist -21.5939
lhand 10.2035 16.614
lfingers 7.12502
lthumb 35.3193 43.0949
rfemur -27.48 7.3869 23.6114
rtibia 39.6888
rfoot -8.54285 -3.70211
rtoes 34.1748
lfemur -24.9436 -4.31126 -24.7379
ltibia 40.1049
lfoot 3.98243 3.78662
ltoes -36.314
159
root -17.7855 17.5636 0.468229 -1.56196 -87.8924 -49.4319
lowerback 12.5294 -0.4658 1.43976
upperback -0.821733 -0.402342 0.187627
thorax -7.92986 -0.2578 -0.536316
lowerneck 9.09358 0.60816 -16.1034
upperneck 33.6532 -4.32857 9.05386
head 9.75842 -4.37955 5.72107
rclavicle 8.49804e-015 -2.72832e-014
rhumerus 98.9837 -23.1615 -54.7643
rradius 25.1728
rwrist -0.659004
rhand 12.5705 22.4548
rfingers 7.12502
rthumb 37.5601 -3.46281
lclavicle 8.49804e-015 -2.72832e-014
lhumerus 97.503 21.2628 54.1928
lradius 26.0499
lwrist -20.832
lhand 10.0165 16.6861
lfingers 7.12502
lthumb 35.142 43.2089
rfemur -27.1546 8.33674 25.1311
rtibia 39.6368
rfoot -8.52956 -4.74363
rtoes 35.0029
lfemur -25.1451 -4.05634 -22.9709
ltibia 40.5888
lfoot 4.27704 2.87871
ltoes -36.3185
160
root -17.8098 17.532 0.481881 65.7466 -84.798 -116.046
lowerback 11.7502 -0.692548 6.27227
upperback -0.971103 0.0463718 1.41584
thorax -7.65163 -0.219492 -2.03923
lowerneck 8.97479 0.47697 -16.3304
upperneck 33.3827 -4.51703 9.31382
head 9.7094 -4.4442 5.84368
rclavicle 1.44119e-015 7.45443e-016
rhumerus 98.7004 -23.5227 -54.6319
rradius 25.3337
rwrist -0.743479
rhand 12.5426 22.5609
rfingers 7.12502
rthumb 37.5337 -3.36366
lclavicle 1.44119e-015 7.45443e-016
lhumerus 97.6357 21.3623 53.5659
lradius 26.1205
lwrist -20.1352
lhand 10.1075 16.8694
lfingers 7.12502
lthumb 35.2283 43.3718
rfemur -27.1369 8.64661 30.3089
rtibia 38.9287
rfoot -9.33549 -5.61177
rtoes 35.5566
lfemur -26.9157 -3.48975 -17.6389
ltibia 41.9968
lfoot 4.03807 2.09645
ltoes -33.9038
161
root -17.8423 17.4801 0.489378 73.9423 -82.3728 -123.82
lowerback 11.4306 -0.789882 8.78845
upperback -1.10612 0.2766 2.1111
thorax -7.60525 -0.207978 -2.74543
lowerneck 11.1011 0.351499 -14.4527
upperneck 30.9744 -4.45684 8.20649
head 8.38335 -4.1917 5.07607
rclavicle -2.88238e-015 -1.97791e-014
rhumerus 98.6835 -23.5564 -54.8189
rradius 25.337
rwrist -0.578379
rhand 12.5206 22.5774
rfingers 7.12502
rthumb 37.513 -3.35274
lclavicle -2.88238e-015 -1.97791e-014
lhumerus 97.3638 21.3788 53.2868
lradius 26.4619
lwrist -19.9718
lhand 10.4417 17.1957
lfingers 7.12502
lthumb 35.5452 43.6227
rfemur -26.8091 7.76826 33.1343
rtibia 37.7366
rfoot -9.46008 -4.79604
rtoes 36.9109
lfemur -28.4989 -3.06496 -14.7544
ltibia 44.0029
lfoot 3.30308 1.72168
ltoes -32.0818
162
root -17.7435 17.5055 0.474156 74.5991 -83.2429 -124.36
lowerback 11.4581 -0.616611 7.58358
upperback -1.12935 0.344827 2.00542
thorax -7.63558 -0.124624 -2.19804
lowerneck 10.3933 0.305309 -15.2774
upperneck 31.4106 -4.55349 8.54468
head 8.69834 -4.30514 5.33908
rclavicle -1.61016e-014 8.64713e-015
rhumerus 98.5299 -23.61 -54.5664
rradius 25.4459
rwrist -0.886486
rhand 12.3254 22.2875
rfingers 7.12502
rthumb 37.3284 -3.69137
lclavicle -1.61016e-014 8.64713e-015
lhumerus 97.4756 21.1525 53.7965
lradius 26.4333
lwrist -20.598
lhand 10.4874 17.315
lfingers 7.12502
lthumb 35.5885 43.7316
rfemur -26.5933 7.35075 32.3055
rtibia 36.9687
rfoot -6.57116 -5.06014
rtoes 33.5967
lfemur -28.7561 -3.02827 -15.5825
ltibia 45.2203
lfoot 2.67878 1.80326
ltoes -34.5244
163
root -17.7026 17.4737 0.496036 76.063 -82.9648 -126.326
lowerback 12.2467 -0.701023 8.16775
upperback -1.04958 0.388309 1.99515
thorax -7.99684 -0.141217 -2.54345
lowerneck 10.2388 0.305026 -15.576
upperneck 31.3792 -4.57274 8.72769
head 8.7245 -4.3256 5.45561
rclavicle -1.33683e-014 4.01545e-014
rhumerus 97.9066 -23.8271 -53.8611
rradius 25.8091
rwrist -1.73663
rhand 11.9285 22.0325
rfingers 7.12502
rthumb 36.9531 -4.04408
lclavicle -1.33683e-014 4.01545e-014
lhumerus 97.8998 20.6996 54.4856
lradius 26.0629
lwrist -21.4642
lhand 10.2333 16.9423
lfingers 7.12502
lthumb 35.3476 43.4164
rfemur -26.0233 7.19687 32.6392
rtibia 37.2278
rfoot -6.60714 -4.88895
rtoes 33.8634
lfemur -28.215 -2.77072 -15.3651
ltibia 45.6786
lfoot 2.62039 1.36466
ltoes -37.2438
164
root -17.7137 17.4313 0.490327 79.906 -82.5445 -130.373
lowerback 12.4226 -0.620306 8.42462
upperback -0.951765 0.552923 2.14311
thorax -7.97449 -0.0682125 -2.5604
lowerneck 10.829 0.272093 -15.2061
upperneck 30.5419 -4.56842 8.5469
head 8.30942 -4.25968 5.31646
rclavicle -1.30204e-014 8.94531e-015
rhumerus 97.5905 -23.8319 -53.661
rradius 26.087
rwrist -2.07219
rhand 11.6954 21.7204
rfingers 7.12502
rthumb 36.7325 -4.41274
lclavicle -1.30204e-014 8.94531e-015
lhumerus 98.1128 20.4381 54.7994
lradius 25.8957
lwrist -22.063
lhand 10.0889 16.685
lfingers 7.12502
lthumb 35.2106 43.1916
rfemur -25.933 8.385 33.0409
rtibia 37.9354
rfoot -8.00155 -5.18712
rtoes 36.7935
lfemur -27.8525 -2.11198 -14.8164
ltibia 45.7992
lfoot 2.77436 1.14213
ltoes -37.1703
165
root -17.6106 17.4376 0.512668 80.1857 -84.0213 -129.938
lowerback 11.83 -0.385652 7.30634
upperback -1.11822 0.632051 1.64423
thorax -7.80586 0.0172756 -2.48154
lowerneck 12.4021 0.11658 -14.0748
upperneck 28.7282 -4.64295 7.88713
head 7.39025 -4.1602 4.87571
rclavicle 1.71452e-014 2.91716e-014
rhumerus 97.618 -23.7657 -53.9859
rradius 26.0242
rwrist -1.49574
rhand 11.8251 21.6477
rfingers 7.12502
rthumb 36.8553 -4.45406
lclavicle 1.71452e-014 2.91716e-014
lhumerus 97.8751 20.0679 55.0976
lradius 26.3018
lwrist -22.371
lhand 9.80339 16.8228
lfingers 7.12502
lthumb 34.9398 43.3929
rfemur -26.4392 7.97886 31.4184
rtibia 38.5731
rfoot -6.65705 -5.49534
rtoes 33.5035
lfemur -28.1042 -1.81644 -16.5305
ltibia 45.8657
lfoot 2.84252 1.52528
ltoes -34.4682
166
root -17.5398 17.4044 0.530856 77.22 -84.1086 -126.882
lowerback 12.0204 -0.51849 7.41526
upperback -1.16558 0.485143 1.54701
thorax -7.9798 -0.0676253 -2.61992
lowerneck 9.47763 0.0497057 -15.9309
upperneck 31.6191 -4.86054 8.90738
head 8.99355 -4.46949 5.56719
rclavicle 8.84592e-015 -6.16232e-015
rhumerus 97.8913 -23.4605 -54.6215
rradius 25.7226
rwrist -0.699422
rhand 11.7839 21.9928
rfingers 7.12502
rthumb 36.8162 -4.11895
lclavicle 8.84592e-015 -6.16232e-015
lhumerus 97.6374 19.9086 55.3254
lradius 26.5487
lwrist -22.5049
lhand 9.55225 16.9968
lfingers 7.12502
lthumb 34.7015 43.6221
rfemur -26.6278 7.22828 31.2514
rtibia 39.5581
rfoot -6.78599 -5.16248
rtoes 24.1243
lfemur -27.8656 -1.61836 -16.848
ltibia 45.75
lfoot 3.02847 1.42711
ltoes -30.8981
167
root -17.4929 17.3641 0.522417 78.4242 -82.896 -128.198
lowerback 12.2056 -0.790556 8.25468
upperback -1.10538 0.282963 2.04569
thorax -8.04573 -0.198864 -2.51719
lowerneck 11.2543 0.267051 -15.3544
upperneck 29.6478 -4.51689 8.39681
head 7.91953 -4.21477 5.28001
rclavicle -1.21165e-014 5.4526e-014
rhumerus 98.5236 -22.7766 -55.3573
rradius 25.2983
rwrist -0.146482
rhand 11.5841 22.6656
rfingers 7.12502
rthumb 36.6273 -3.49427
lclavicle -1.21165e-014 5.4526e-014
lhumerus 97.8447 20.3857 55.0911
lradius 26.1096
lwrist -22.4654
lhand 9.71434 17.3664
lfingers 7.12502
lthumb 34.8553 43.9561
rfemur -26.8346 6.44465 32.7787
rtibia 40.9666
rfoot -7.03375 -4.94386
rtoes 13.3649
lfemur -27.3996 -1.21454 -15.533
ltibia 45.4466
lfoot 3.23254 1.37159
ltoes -31.4397
168
root -17.3759 17.3672 0.520629 72.9919 -84.4854 -122.02
lowerback 11.5549 -0.811631 6.65766
upperback -1.25202 -0.0486855 1.60273
thorax -7.85432 -0.290152 -2.03687
lowerneck 9.70259 0.357843 -17.0226
upperneck 31.1945 -4.56443 9.35415
head 8.79304 -4.4012 5.93171
rclavicle 2.07233e-014 -1.94064e-014
rhumerus 98.7027 -22.6709 -55.3124
rradius 25.1391
rwrist -0.57958
rhand 11.8256 22.9632
rfingers 7.12502
rthumb 36.8558 -3.13843
lclavicle 2.07233e-014 -1.94064e-014
lhumerus 98.1325 20.5338 55.0191
lradius 25.8573
lwrist -22.5733
lhand 9.25445 17.7099
lfingers 7.12502
lthumb 34.4189 44.3997
rfemur -28.0066 6.71311 30.3503
rtibia 42.1524
rfoot -7.34603 -4.57911
rtoes 33.2904
lfemur -27.3403 -1.23205 -17.4736
ltibia 45.1143
lfoot 3.15699 1.65963
ltoes -33.3909
169
root -17.318 17.3131 0.514605 67.3326 -86.0903 -115.925
lowerback 11.3769 -0.674486 4.83586
upperback -1.29625 -0.16001 1.05565
thorax -7.7951 -0.270765 -1.57727
lowerneck 9.41693 0.213578 -16.7477
upperneck 31.3057 -4.69139 9.25828
head 8.89104 -4.43225 5.84156
rclavicle -1.963e-015 2.88486e-014
rhumerus 98.4923 -22.9891 -55.1334
rradius 25.2624
rwrist -1.30562
rhand 11.9017 22.7133
rfingers 7.12502
rthumb 36.9278 -3.36985
lclavicle -1.963e-015 2.88486e-014
lhumerus 98.463 20.1951 55.3553
lradius 25.8175
lwrist -23.2606
lhand 8.53234 17.5957
lfingers 7.12502
lthumb 33.733 44.4384
rfemur -28.6505 6.31925 28.623
rtibia 43.1162
rfoot -6.62472 -3.9974
rtoes 43.5956
lfemur -27.2843 -0.87137 -19.4097
ltibia 45.1532
lfoot 3.23957 1.48422
ltoes -35.0923
170
root -17.2221 17.2661 0.55224 81.5946 -84.5556 -130.472
lowerback 12.08 -0.693254 7.03375
upperback -1.14632 0.187233 1.33689
thorax -8.02083 -0.199969 -2.57514
lowerneck 9.52388 0.0729678 -15.7849
upperneck 30.8329 -4.6644 8.65152
head 8.66177 -4.32045 5.44196
rclavicle 8.70925e-015 1.87292e-014
rhumerus 98.5649 -22.9923 -55.6268
rradius 25.2837
rwrist -1.20384
rhand 11.6959 22.8857
rfingers 7.12502
rthumb 36.733 -3.24732
lclavicle 8.70925e-015 1.87292e-014
lhumerus 98.9659 19.8349 55.9438
lradius 25.6295
lwrist -24.2657
lhand 8.33725 17.428
lfingers 7.12502
lthumb 33.5476 44.3111
rfemur -28.2584 6.99816 30.3439
rtibia 43.7654
rfoot -6.47548 -3.8978
rtoes 50.6292
lfemur -26.6948 0.0234867 -17.5904
ltibia 45.5379
lfoot 3.31956 1.42938
ltoes -36.8917
